<svg width="140" height="46" viewBox="0 0 140 46" fill="none" xmlns="http://www.w3.org/2000/svg">
<path d="M36.8 23C36.8 11.8728 28.8983 2.59113 18.4 0.460083C19.8863 0.158379 21.4247 0 23 0C35.7025 0 46 10.2975 46 23C46 35.7025 35.7025 46 23 46C21.4247 46 19.8863 45.8416 18.4 45.5399C28.8983 43.4089 36.8 34.1272 36.8 23Z" fill="#1A66E6"/>
<path d="M0 23C0 15.3785 6.17847 9.2 13.8 9.2C15.4129 9.2 16.9612 9.47671 18.4 9.98525C13.0401 11.8797 9.2 16.9914 9.2 23C9.2 29.0086 13.0401 34.1203 18.4 36.0148C16.9612 36.5233 15.4129 36.8 13.8 36.8C6.17847 36.8 0 30.6215 0 23Z" fill="#1A66E6"/>
<path d="M81.8547 30.1764V34.2094H69.5606H66V11H71.2737V30.1764H81.8547Z" fill="#323033"/>
<path d="M83.6015 25.4261C83.6015 23.7365 83.9374 22.2274 84.6092 20.899C85.2922 19.5707 86.2831 18.5292 87.5819 17.7747C88.8808 17.0202 90.4315 16.6429 92.2342 16.6429C94.0481 16.6429 95.6045 17.0202 96.9033 17.7747C98.2133 18.5292 99.2043 19.5707 99.8761 20.899C100.559 22.2274 100.901 23.7365 100.901 25.4261V25.7609C100.901 27.4506 100.559 28.9596 99.8761 30.288C99.2043 31.6057 98.2189 32.6419 96.9201 33.3964C95.6213 34.1509 94.0705 34.5282 92.2678 34.5282C90.4539 34.5282 88.892 34.1509 87.5819 33.3964C86.2831 32.6419 85.2922 31.6057 84.6092 30.288C83.9374 28.9596 83.6015 27.4506 83.6015 25.7609V25.4261ZM88.6736 25.7609C88.6736 27.2487 88.9591 28.4389 89.5302 29.3316C90.1012 30.2136 91.0138 30.6546 92.2678 30.6546C93.4995 30.6546 94.4008 30.2083 94.9719 29.3156C95.5429 28.423 95.8284 27.238 95.8284 25.7609V25.4261C95.8284 23.9596 95.5429 22.7747 94.9719 21.8714C94.4008 20.9681 93.4883 20.5165 92.2342 20.5165C91.0026 20.5165 90.1012 20.9734 89.5302 21.8874C88.9591 22.7906 88.6736 23.9702 88.6736 25.4261V25.7609Z" fill="#323033"/>
<path d="M119.846 16.9617V33.5877C119.846 35.1392 119.476 36.4729 118.737 37.5887C117.998 38.7046 116.957 39.5494 115.613 40.1233C114.281 40.7078 112.73 41 110.961 41C109.729 41 108.475 40.7662 107.199 40.2986C105.922 39.8417 104.926 39.1934 104.209 38.3539L106.409 35.4049C106.969 35.9894 107.619 36.4463 108.358 36.7758C109.097 37.1052 109.897 37.2699 110.759 37.2699C112.025 37.2699 113.004 36.9458 113.699 36.2976C114.404 35.6599 114.757 34.7566 114.757 33.5877V32.7269C113.637 33.9277 112.193 34.5282 110.424 34.5282C108.946 34.5282 107.647 34.1562 106.527 33.4123C105.419 32.6578 104.562 31.6164 103.957 30.288C103.364 28.9596 103.067 27.4612 103.067 25.7928V25.458C103.067 23.7152 103.364 22.1796 103.957 20.8512C104.562 19.5228 105.419 18.492 106.527 17.7588C107.647 17.0149 108.957 16.6429 110.457 16.6429C112.428 16.6429 113.962 17.2806 115.059 18.5558L115.244 16.9617H119.846ZM111.7 30.6387C113.111 30.6387 114.13 30.1445 114.757 29.1562V21.9989C114.141 21.0213 113.133 20.5324 111.734 20.5324C110.569 20.5324 109.673 20.9894 109.046 21.9033C108.43 22.8172 108.123 24.0021 108.123 25.458V25.7928C108.123 27.2274 108.425 28.3964 109.03 29.2997C109.634 30.1923 110.524 30.6387 111.7 30.6387Z" fill="#323033"/>
<path d="M122.701 25.4261C122.701 23.7365 123.037 22.2274 123.709 20.899C124.392 19.5707 125.383 18.5292 126.681 17.7747C127.98 17.0202 129.531 16.6429 131.334 16.6429C133.148 16.6429 134.704 17.0202 136.003 17.7747C137.313 18.5292 138.304 19.5707 138.975 20.899C139.658 22.2274 140 23.7365 140 25.4261V25.7609C140 27.4506 139.658 28.9596 138.975 30.288C138.304 31.6057 137.318 32.6419 136.02 33.3964C134.721 34.1509 133.17 34.5282 131.367 34.5282C129.553 34.5282 127.991 34.1509 126.681 33.3964C125.383 32.6419 124.392 31.6057 123.709 30.288C123.037 28.9596 122.701 27.4506 122.701 25.7609V25.4261ZM127.773 25.7609C127.773 27.2487 128.059 28.4389 128.63 29.3316C129.201 30.2136 130.113 30.6546 131.367 30.6546C132.599 30.6546 133.5 30.2083 134.071 29.3156C134.642 28.423 134.928 27.238 134.928 25.7609V25.4261C134.928 23.9596 134.642 22.7747 134.071 21.8714C133.5 20.9681 132.588 20.5165 131.334 20.5165C130.102 20.5165 129.201 20.9734 128.63 21.8874C128.059 22.7906 127.773 23.9702 127.773 25.4261V25.7609Z" fill="#323033"/>
</svg>
